<?xml version="1.0" standalone="no"?>
<!DOCTYPE svg PUBLIC "-//W3C//DTD SVG 20010904//EN"
 "http://www.w3.org/TR/2001/REC-SVG-20010904/DTD/svg10.dtd">
<svg version="1.0" xmlns="http://www.w3.org/2000/svg"
 width="512.000000pt" height="512.000000pt" viewBox="0 0 512.000000 512.000000"
 preserveAspectRatio="xMidYMid meet">
<metadata>
Created by potrace 1.14, written by Peter Selinger 2001-2017
</metadata>
<g transform="translate(0.000000,512.000000) scale(0.100000,-0.100000)"
fill="#000000" stroke="none">
<path d="M1522 4397 c-5 -7 -12 -34 -16 -62 -12 -108 -52 -214 -173 -465 -156
-323 -188 -410 -200 -546 -8 -104 20 -204 82 -290 15 -21 14 -22 -32 -33 -211
-53 -466 -220 -573 -375 -124 -181 -101 -345 71 -517 129 -128 306 -218 446
-224 55 -3 135 9 183 28 19 7 113 37 116 37 1 0 6 -19 10 -42 4 -24 8 -45 9
-48 1 -3 5 -32 10 -65 5 -33 9 -62 10 -65 0 -3 4 -23 9 -45 9 -48 39 -131 66
-184 19 -39 19 -39 -1 -100 -35 -102 -117 -215 -197 -270 -39 -27 -79 -39
-152 -47 -177 -17 -207 -22 -232 -35 -13 -7 -25 -12 -28 -12 -22 2 -76 -44
-95 -80 -14 -28 -11 -160 5 -165 5 -2 10 -9 10 -15 1 -11 86 -81 99 -82 3 -1
29 -9 58 -19 138 -47 339 -18 493 71 138 80 278 245 334 393 l17 45 122 -60
122 -60 -46 -36 c-94 -75 -152 -158 -151 -218 1 -89 62 -156 178 -196 51 -18
58 -19 164 -34 64 -9 698 -6 815 4 90 7 168 16 190 20 11 3 36 7 55 9 19 3 78
17 130 31 52 14 102 27 110 29 30 8 165 71 178 83 7 7 18 13 24 13 13 0 110
72 148 109 83 82 160 213 186 316 20 75 33 136 36 160 2 21 8 29 18 26 35 -9
141 -1 174 13 20 8 36 13 36 10 0 -10 86 54 123 92 194 195 209 590 30 771
-114 114 -275 101 -477 -40 -33 -23 -66 -46 -73 -50 -8 -5 -37 28 -83 92 -109
153 -199 238 -340 322 -14 9 -52 25 -85 37 -76 27 -135 38 -305 57 -60 7 -103
13 -175 26 -84 15 -182 4 -342 -37 -76 -19 -149 -37 -163 -40 -14 -3 -38 -9
-55 -14 -73 -23 -187 -38 -275 -37 -84 2 -101 6 -143 30 -78 46 -117 124 -95
189 12 33 73 89 170 154 93 62 125 96 167 175 65 124 109 273 141 474 12 77 5
377 -10 430 -36 128 -65 204 -80 208 -26 7 -58 -15 -127 -83 -198 -197 -335
-469 -519 -1030 -20 -63 -40 -118 -44 -123 -3 -4 -17 1 -29 12 l-22 20 31 98
c33 102 81 294 99 398 6 33 13 71 16 85 19 95 26 376 14 480 -10 76 -41 172
-75 231 -35 58 -75 87 -92 66z m72 -248 c-2 -4 0 -10 4 -13 11 -7 15 -60 14
-206 0 -95 -7 -225 -12 -225 -1 0 -3 -18 -5 -40 -5 -41 -11 -83 -20 -125 -3
-14 -8 -41 -11 -60 -12 -65 -74 -303 -100 -376 -15 -45 -22 -82 -18 -98 10
-43 96 -106 143 -106 34 0 59 47 120 230 183 544 284 742 475 931 22 22 42 39
46 39 9 0 26 -65 36 -135 10 -71 11 -178 3 -254 -7 -66 -10 -80 -25 -156 -10
-52 -11 -55 -13 -57 -2 -2 -4 -13 -7 -26 -2 -13 -20 -66 -40 -119 -65 -172
-95 -214 -213 -293 -109 -73 -180 -139 -206 -190 -29 -57 -23 -137 16 -210 40
-75 93 -124 178 -163 58 -26 79 -30 171 -33 58 -2 125 1 150 6 25 4 59 11 75
14 60 10 90 18 214 51 169 46 275 63 331 54 25 -4 63 -10 85 -14 22 -3 51 -8
65 -11 14 -2 70 -11 125 -20 109 -17 225 -50 225 -65 0 -5 4 -8 8 -7 16 5 115
-65 167 -117 59 -58 104 -115 199 -254 65 -93 93 -118 132 -117 11 1 80 44
154 97 25 18 74 46 110 62 121 55 202 32 254 -71 76 -152 51 -319 -64 -432
-71 -70 -165 -88 -255 -50 -16 7 -33 13 -37 12 -5 -1 -8 2 -8 7 0 15 -61 -6
-79 -27 -18 -20 -20 -27 -26 -90 -27 -301 -156 -482 -431 -608 -41 -18 -74
-31 -74 -28 0 2 -12 -2 -27 -9 -16 -7 -35 -13 -43 -12 -8 1 -19 -2 -25 -6 -5
-3 -26 -9 -45 -13 -19 -3 -46 -8 -60 -11 -46 -10 -108 -18 -235 -30 -68 -6
-440 -18 -595 -18 -191 -1 -319 20 -351 60 -11 13 -6 22 38 62 75 68 77 70
156 106 90 41 116 64 123 107 10 61 -34 94 -141 103 -48 4 -251 87 -267 110
-4 5 -8 6 -8 2 0 -5 -15 0 -32 11 -18 12 -36 21 -41 21 -4 0 -24 5 -43 10 -67
19 -126 -26 -140 -106 -8 -41 -65 -155 -111 -221 -85 -120 -236 -218 -368
-240 -92 -14 -202 1 -245 36 -24 20 -30 73 -10 97 15 18 66 33 140 39 147 14
178 19 227 36 90 31 169 99 237 202 13 20 22 39 18 42 -3 3 -1 6 4 6 10 0 40
69 36 83 -1 4 3 7 10 7 6 0 9 3 5 6 -3 3 0 25 7 47 18 61 14 84 -31 172 -27
56 -46 114 -61 190 -13 61 -30 146 -38 190 -30 147 -50 162 -167 124 -40 -13
-74 -24 -77 -25 -3 0 -12 -3 -20 -6 -93 -36 -196 -33 -290 8 -98 43 -168 90
-243 165 -77 78 -117 151 -117 219 0 198 366 484 660 515 14 2 28 3 32 4 16 2
38 34 38 56 0 13 -16 42 -36 66 -19 24 -48 66 -62 93 -24 46 -27 61 -27 156 0
134 24 205 163 491 125 258 129 267 154 342 19 57 24 75 28 102 1 6 8 -12 15
-39 8 -28 12 -53 9 -57z"/>
</g>
</svg>
